<svg xmlns="http://www.w3.org/2000/svg" width="18" height="15" viewBox="0 0 18 15">
    <path fill="#B8B8B8" fill-rule="evenodd" d="M11.981 0h.844l.3.056c.206.038.394.094.563.15.168.075.337.15.487.225.15.094.3.169.431.263.132.094.244.187.338.281.093.094.262.131.468.075.207-.056.432-.113.675-.206.244-.094.488-.188.713-.3.225-.113.375-.169.431-.207.056-.037.075-.037.075-.056h.113v.131c0 .02-.019.038-.019.076 0 .018-.056.13-.15.318s-.225.375-.356.581a3.16 3.16 0 0 1-.394.432c-.113.094-.188.169-.225.206a.816.816 0 0 1-.131.113l-.075.056h-.076.076l.45-.094c.3-.056.6-.15.862-.244l.431-.15.057-.018h.169v.074s-.076.094-.207.282c-.131.187-.206.281-.225.281-.019 0-.019.019-.037.056-.019.038-.131.15-.338.357a8.401 8.401 0 0 1-.619.562.753.753 0 0 0-.3.6c0 .244-.018.506-.037.806a6.36 6.36 0 0 1-.131.975c-.056.356-.15.75-.281 1.2-.132.45-.282.881-.45 1.294a8.118 8.118 0 0 1-.563 1.144c-.206.337-.375.618-.544.843-.168.225-.337.45-.487.657-.15.206-.375.431-.638.693l-.412.413a8.101 8.101 0 0 1-.319.262c-.188.15-.394.32-.6.47-.206.15-.412.28-.581.393-.169.112-.394.225-.638.356a8.034 8.034 0 0 1-.806.375 9.658 9.658 0 0 1-1.856.544c-.3.056-.657.094-1.032.131l-.787.169H4.969c-.094 0-.169-.019-.225-.019-.056 0-.281-.037-.675-.094a9.378 9.378 0 0 1-.919-.168c-.225-.056-.544-.15-.994-.3-.45-.15-.806-.3-1.125-.45-.318-.15-.506-.244-.581-.3-.075-.038-.169-.094-.263-.15l-.15-.094H0v-.038H.113c.056 0 .187.02.393.02.207 0 .45.018.694 0 .244-.02.488-.038.75-.076.262-.037.563-.112.9-.187.337-.094.656-.207.956-.338.282-.131.488-.225.619-.281.131-.056.3-.169.563-.338l.374-.243H5.4v-.038h-.131c-.094 0-.169-.019-.244-.019-.075 0-.206-.037-.375-.075-.169-.037-.356-.112-.563-.187a5.65 5.65 0 0 1-.58-.3c-.188-.112-.32-.225-.413-.3-.075-.075-.188-.188-.319-.338-.131-.15-.244-.3-.337-.45a4.44 4.44 0 0 1-.282-.524l-.131-.3v-.075h.037l.188.018c.112.019.3.019.563.019.262 0 .43-.019.524-.037.094-.02.15-.02.188-.038H3.638 3.45c-.019 0-.056-.019-.113-.038a7.798 7.798 0 0 1-.43-.168 3.669 3.669 0 0 1-.563-.3A3.249 3.249 0 0 1 1.95 8.1c-.113-.112-.262-.262-.412-.45a4.154 4.154 0 0 1-.413-.638 2.894 2.894 0 0 1-.262-.693 4.227 4.227 0 0 1-.113-.675l-.037-.338h.112l.244.113c.169.075.375.15.619.187.243.056.393.094.45.094H2.363h-.075s-.057-.038-.132-.094c-.094-.075-.187-.15-.281-.262a4.85 4.85 0 0 0-.3-.338 1.692 1.692 0 0 1-.262-.375c-.075-.131-.15-.3-.244-.525C.994 3.9.919 3.694.88 3.487c-.15-.45-.168-.656-.168-.862 0-.206 0-.375.018-.525a5.52 5.52 0 0 1 .094-.488c.038-.168.113-.375.206-.58l.132-.3V.693.73l.224.244c.15.169.32.338.526.544.206.206.318.3.337.319.019 0 .056.037.075.075.037.037.15.13.319.28.187.15.431.338.712.526.3.206.619.393.994.6.375.206.75.375 1.163.525.412.15.712.262.88.3.17.056.45.112.863.187s.713.131.919.15c.206.019.337.038.412.038H8.7V4.48l.075-.225a3.962 3.962 0 0 1-.037-.562c0-.244.018-.469.056-.675.037-.207.093-.413.168-.619a3.336 3.336 0 0 1 .507-.938c.112-.168.281-.337.469-.506a3.44 3.44 0 0 1 .656-.468c.244-.132.469-.244.675-.3.206-.075.375-.113.525-.132C11.925.02 11.98 0 11.98 0z"/>
</svg>
