<svg xmlns="http://www.w3.org/2000/svg" width="18" height="18" viewBox="0 0 18 18">
    <path fill="#B8B8B8" fill-rule="evenodd" d="M8.463 0h1.074c1.96.002 2.29.014 3.174.054.958.044 1.612.196 2.184.418.592.23 1.094.538 1.594 1.038s.809 1.003 1.039 1.594l.017.045c.21.554.354 1.19.4 2.103l.013.303c.033.758.042 1.22.042 3.3v.684c-.002 1.958-.014 2.287-.054 3.172-.044.958-.196 1.612-.418 2.184a4.412 4.412 0 0 1-1.039 1.594c-.5.5-1.002.809-1.594 1.039l-.044.017c-.554.21-1.19.354-2.104.4l-.302.013c-.758.033-1.22.042-3.3.042H8.46c-1.958-.002-2.287-.014-3.172-.054-.958-.044-1.612-.196-2.184-.418a4.412 4.412 0 0 1-1.594-1.039c-.5-.5-.809-1.002-1.039-1.594l-.016-.044c-.21-.555-.355-1.19-.4-2.104l-.013-.275C.01 11.707.001 11.261 0 9.214v-.752C.002 6.503.014 6.174.054 5.29c.044-.958.196-1.612.418-2.185A4.411 4.411 0 0 1 1.511 1.51c.5-.5 1.002-.808 1.594-1.038l.044-.017c.554-.21 1.19-.355 2.104-.4l.275-.012C6.25.011 6.689.001 8.463 0zm1.005 1.622h-.936c-1.728 0-2.18.009-2.857.038l-.312.014c-.877.04-1.354.187-1.671.31-.42.163-.72.358-1.035.673a2.779 2.779 0 0 0-.663 1.009l-.018.046c-.121.317-.263.792-.302 1.651L1.66 5.7c-.029.68-.037 1.148-.037 2.96v.809c.001 1.977.012 2.285.052 3.169l.003.055c.043.842.186 1.306.307 1.616.163.42.358.72.673 1.035.309.308.602.502 1.009.663l.046.018c.318.121.792.263 1.651.302l.336.015c.68.029 1.148.037 2.96.037h.81c1.977-.001 2.284-.012 3.168-.052l.055-.003c.842-.043 1.306-.186 1.616-.307.42-.163.72-.358 1.035-.673.308-.309.502-.602.663-1.009l.018-.047c.121-.317.263-.791.302-1.65l.015-.336c.029-.68.037-1.149.037-2.96v-.81c-.001-1.977-.012-2.284-.052-3.168l-.003-.055c-.043-.843-.186-1.306-.307-1.616a2.788 2.788 0 0 0-.673-1.035 2.779 2.779 0 0 0-1.009-.663l-.047-.018c-.313-.12-.781-.26-1.622-.3l-.34-.016c-.676-.029-1.13-.037-2.857-.038zM9 4.378a4.622 4.622 0 1 1 0 9.243 4.622 4.622 0 0 1 0-9.243zM9 6a3 3 0 1 0 0 6 3 3 0 0 0 0-6zm4.804-2.884a1.08 1.08 0 1 1 0 2.16 1.08 1.08 0 0 1 0-2.16z"/>
</svg>
