<svg xmlns="http://www.w3.org/2000/svg" width="640" height="421" viewBox="0 0 640 421">
    <g fill="none" fill-rule="evenodd">
        <path fill="#DFF7FF" d="M98.092 268c-8.53-37.228 9.669-75.533 42.826-90.139 33.158-14.606 71.326-1.131 89.819 31.709 17.81-8.628 38.503-6.994 54.933 4.338 16.43 11.333 26.349 30.81 26.33 51.709V268H98.092zM1.046 48C-3.219 29.386 5.88 10.234 22.46 2.93c16.579-7.302 35.663-.565 44.91 15.855 8.905-4.314 19.25-3.497 27.466 2.17C103.05 26.62 108.01 36.358 108 46.807V48H1.046zM609.21 184c11.374-49.638-12.891-100.71-57.101-120.185-44.21-19.474-95.101-1.509-119.758 42.278-23.75-11.466-51.32-9.27-73.217 5.832-21.896 15.102-35.127 41.046-35.134 68.897V184h285.21z"/>
        <path fill="#16708E" d="M279 340h2v80h-2z"/>
        <path fill="#9CDDF2" d="M300 347.914c.13 26.51-19.764 48.086-19.764 48.086s-20.105-21.404-20.235-47.914c-.13-26.51 19.763-48.086 19.763-48.086s20.105 21.404 20.235 47.914z"/>
        <path fill="#16708E" d="M619 340h2v80h-2z"/>
        <path fill="#9CDDF2" d="M640 347.914c.13 26.51-19.764 48.086-19.764 48.086s-20.105-21.404-20.235-47.914c-.13-26.51 19.763-48.086 19.763-48.086s20.105 21.404 20.235 47.914z"/>
        <path fill="#16708E" d="M147 340h2v80h-2z"/>
        <path fill="#9CDDF2" d="M160 363.942c.078 17.673-11.858 32.058-11.858 32.058S136.079 381.73 136 364.058C135.922 346.385 147.858 332 147.858 332s12.063 14.27 12.142 31.942z"/>
        <path fill="#16708E" d="M595 340h2v80h-2z"/>
        <path fill="#9CDDF2" d="M608 363.942c.078 17.673-11.858 32.058-11.858 32.058S584.079 381.73 584 364.058C583.922 346.385 595.858 332 595.858 332s12.063 14.27 12.142 31.942z"/>
        <path stroke="#1F1F1F" stroke-linecap="round" stroke-linejoin="round" stroke-width="2" d="M484 420V236h104v184z"/>
        <path fill="#1F1F1F" d="M524 380h24v40h-24z"/>
        <path stroke="#1F1F1F" stroke-linecap="round" stroke-linejoin="round" stroke-width="2" d="M420 420V40h72v380z"/>
        <path fill="#1F1F1F" d="M444 380h24v40h-24z"/>
        <g>
            <path stroke="#1F1F1F" stroke-linecap="round" stroke-linejoin="round" stroke-width="2" d="M164 420V140h104v280z"/>
            <path fill="#1F1F1F" d="M204 380h24v40h-24z"/>
        </g>
        <g>
            <path stroke="#1F1F1F" stroke-linecap="round" stroke-linejoin="round" stroke-width="2" d="M80 340l52 24v56H28v-56l52-24z"/>
            <path fill="#1F1F1F" d="M68 380h24v40H68z"/>
        </g>
        <g>
            <path stroke="#1F1F1F" stroke-linecap="round" stroke-linejoin="round" stroke-width="2" d="M344 340l52 24v56H292v-56l52-24z"/>
            <path fill="#1F1F1F" d="M332 380h24v40h-24z"/>
        </g>
        <g>
            <path fill="#16708E" d="M475 340h2v80h-2z"/>
            <path fill="#9CDDF2" d="M496 347.914c.13 26.51-19.764 48.086-19.764 48.086s-20.105-21.404-20.235-47.914c-.13-26.51 19.763-48.086 19.763-48.086s20.105 21.404 20.235 47.914z"/>
        </g>
        <g>
            <path fill="#16708E" d="M19 340h2v80h-2z"/>
            <path fill="#9CDDF2" d="M40 347.914C40.13 374.424 20.235 396 20.235 396S.131 374.596.001 348.086C-.13 321.576 19.764 300 19.764 300s20.105 21.404 20.235 47.914z"/>
        </g>
    </g>
</svg>
